<svg xmlns="http://www.w3.org/2000/svg" viewBox="0 0 350 80"><path d="M76 62.52v-35L45.69 10.06 15.41 27.55v35L45.69 80Z" fill="#0058c3"/><path d="M45.69 10.06 15.41 27.54v35L45.69 80Z" fill="#0368d9"/><path d="m89.11 23.65-38.8-22.4a9.37 9.37 0 0 0-9.36 0L2.16 23.65a4.32 4.32 0 0 0 0 7.48L41 53.53a9.35 9.35 0 0 0 9.35 0l38.8-22.4a4.32 4.32 0 0 0-.04-7.48Z" fill="#0071f0"/><path fill="#489af8" d="m44.4 26.26 26.44 15.26 9.67-5.58-26.44-15.26-9.67 5.58z"/><path d="M70.85 41.53v23.56l4.79 5.28 4.87-7.87V35.94Z" fill="#489af8"/><path d="M116.12 54h13.8v6.66h-22.2V18.79h8.4Zm49.8-7.43h-24.3a8.26 8.26 0 0 0 2.52 5.64 7.77 7.77 0 0 0 5.46 2 6.86 6.86 0 0 0 6.66-4h9.06a15.14 15.14 0 0 1-5.52 7.89 16.12 16.12 0 0 1-10 3.09 17.34 17.34 0 0 1-8.61-2.13 15 15 0 0 1-5.94-6 18.48 18.48 0 0 1-2.13-9A18.82 18.82 0 0 1 135.2 35a14.65 14.65 0 0 1 5.88-6 18.88 18.88 0 0 1 17.19-.06 14.36 14.36 0 0 1 5.82 5.79 17.52 17.52 0 0 1 2.07 8.61 19.82 19.82 0 0 1-.24 3.23Zm-8.46-5.64a6.66 6.66 0 0 0-2.34-5.19 8.29 8.29 0 0 0-5.58-2 7.62 7.62 0 0 0-5.25 1.89 8.31 8.31 0 0 0-2.61 5.25Zm24.6-6.6v16.08a3.18 3.18 0 0 0 .81 2.43 4 4 0 0 0 2.73.75h3.9v7.08h-5.28q-10.62 0-10.62-10.32v-16h-4v-6.9h4v-8.24h8.46v8.22h7.44v6.9Zm42-15.54v6.78H212.9v35.1h-8.4v-35.1h-11.16v-6.78Zm37.5 8.64v33.24h-8.46v-4.2a11.09 11.09 0 0 1-4.23 3.39 13.13 13.13 0 0 1-5.67 1.23 14.08 14.08 0 0 1-6.9-1.65 11.63 11.63 0 0 1-4.71-4.86 16.06 16.06 0 0 1-1.71-7.65v-19.5h8.4v18.3a8.62 8.62 0 0 0 2 6.09 7 7 0 0 0 5.4 2.13 7.09 7.09 0 0 0 5.46-2.13 8.62 8.62 0 0 0 2-6.09v-18.3Zm18.06 6.9v16.08a3.18 3.18 0 0 0 .81 2.43 4 4 0 0 0 2.73.75h3.9v7.08h-5.28q-10.62 0-10.62-10.32v-16h-4v-6.9h4v-8.24h8.46v8.22h7.44v6.9Zm19.62 24.75a15.34 15.34 0 0 1-6-6 18.07 18.07 0 0 1-2.19-9 17.68 17.68 0 0 1 2.25-9 15.64 15.64 0 0 1 6.15-6 18.83 18.83 0 0 1 17.4 0 15.64 15.64 0 0 1 6.15 6 17.68 17.68 0 0 1 2.25 9 17.32 17.32 0 0 1-2.31 9 16 16 0 0 1-6.24 6 18.15 18.15 0 0 1-8.79 2.13 17.51 17.51 0 0 1-8.67-2.13Zm12.93-6.3a8.07 8.07 0 0 0 3.21-3.33 11.22 11.22 0 0 0 1.2-5.4q0-4.74-2.49-7.29a8.19 8.19 0 0 0-6.09-2.55 8 8 0 0 0-6 2.55q-2.43 2.55-2.43 7.29t2.37 7.29a7.8 7.8 0 0 0 6 2.55 8.74 8.74 0 0 0 4.23-1.11ZM344 28.45a11.76 11.76 0 0 1 6-1.5v8.82h-2.22q-4 0-6 1.86t-2 6.48v16.56h-8.4V27.43h8.4v5.16a11.81 11.81 0 0 1 4.22-4.14Z" fill="#0071f0"/></svg>